<svg width="180" height="38" viewBox="0 0 180 38" fill="none" xmlns="http://www.w3.org/2000/svg">
<path d="M11.1553 30.5381C7.86491 30.5381 5.30436 29.5794 3.47363 27.6621C1.65527 25.7448 0.746094 23.0729 0.746094 19.6465C0.746094 16.2077 1.64909 13.5234 3.45508 11.5938C5.26107 9.65169 7.77214 8.68066 10.9883 8.68066C13.1901 8.68066 15.2992 9.21257 17.3154 10.2764V15.249C15.7074 13.8389 13.8952 13.1338 11.8789 13.1338C10.0605 13.1338 8.66895 13.6966 7.7041 14.8223C6.73926 15.9479 6.25684 17.5498 6.25684 19.6279C6.25684 21.6937 6.73307 23.2894 7.68555 24.415C8.65039 25.5283 10.0234 26.085 11.8047 26.085C13.9199 26.085 15.7568 25.3737 17.3154 23.9512V28.9424C15.4723 30.0062 13.4189 30.5381 11.1553 30.5381ZM24.0879 9.21875H28.9492L29.4873 12.3359C29.8708 11.1732 30.5264 10.2826 31.4541 9.66406C32.3942 9.0332 33.5322 8.71777 34.8682 8.71777C36.7979 8.71777 38.2637 9.37956 39.2656 10.7031C40.2676 12.0267 40.7686 13.9626 40.7686 16.5107V30H35.3691V17.3457C35.3691 15.8861 35.1589 14.8223 34.7383 14.1543C34.3301 13.474 33.693 13.1338 32.8271 13.1338C31.7757 13.1338 30.9531 13.5791 30.3594 14.4697C29.778 15.3604 29.4873 16.5726 29.4873 18.1064V30H24.0879V9.21875ZM45.2773 9.21875H50.7881L55.2227 25.4355L59.6758 9.21875H65.1865L58.5811 30H51.8828L45.2773 9.21875ZM71.1611 9.21875H76.0596L76.5977 12.4473C77.1296 11.2721 77.9398 10.3568 79.0283 9.70117C80.1292 9.04557 81.4157 8.71777 82.8877 8.71777C84.4092 8.71777 85.8193 9.07031 87.1182 9.77539V14.9521C85.9183 13.8636 84.3473 13.3193 82.4053 13.3193C80.8343 13.3193 79.5602 13.6781 78.583 14.3955C77.6058 15.113 76.9997 16.1458 76.7646 17.4941C76.7028 17.8158 76.6595 18.2054 76.6348 18.6631C76.61 19.1208 76.5977 19.7083 76.5977 20.4258V30H71.1611V9.21875ZM100.403 37.8672C98.0531 37.8672 95.777 37.527 93.5752 36.8467V31.8555C95.5791 32.9688 97.6696 33.5254 99.8467 33.5254C101.467 33.5254 102.642 33.1667 103.372 32.4492C104.114 31.7318 104.485 30.5999 104.485 29.0537V26.8086C103.422 28.763 101.665 29.7402 99.2158 29.7402C97.7562 29.7402 96.5254 29.4434 95.5234 28.8496C94.5339 28.2435 93.736 27.4456 93.1299 26.4561C92.5238 25.4541 92.0846 24.347 91.8125 23.1348C91.5404 21.9225 91.4043 20.6979 91.4043 19.4609C91.4043 18.2487 91.5342 17.0179 91.7939 15.7686C92.0537 14.5068 92.4743 13.3379 93.0557 12.2617C93.6494 11.1855 94.4287 10.3197 95.3936 9.66406C96.3708 9.00846 97.5706 8.68066 98.9932 8.68066C101.541 8.68066 103.372 9.74447 104.485 11.8721L105.023 9.21875H109.922V28.4414C109.922 31.7689 109.174 34.1686 107.677 35.6406C106.18 37.125 103.756 37.8672 100.403 37.8672ZM100.645 25.4355C101.77 25.4355 102.692 24.8604 103.409 23.71C104.127 22.5596 104.485 21.0814 104.485 19.2754C104.485 17.4694 104.127 15.9974 103.409 14.8594C102.704 13.709 101.789 13.1338 100.663 13.1338C99.5374 13.1338 98.6159 13.709 97.8984 14.8594C97.1934 15.9974 96.8408 17.4694 96.8408 19.2754C96.8408 21.0814 97.1934 22.5596 97.8984 23.71C98.6035 24.8604 99.5189 25.4355 100.645 25.4355ZM123.838 30.7793C123.355 30.7793 122.929 30.6927 122.558 30.5195C122.187 30.3587 121.846 30.1237 121.537 29.8145C120.894 29.1712 120.572 28.361 120.572 27.3838C120.572 26.3695 120.894 25.5407 121.537 24.8975C122.168 24.2666 122.941 23.9512 123.856 23.9512C124.784 23.9512 125.563 24.2666 126.194 24.8975C126.825 25.5283 127.141 26.3571 127.141 27.3838C127.141 28.3734 126.825 29.1836 126.194 29.8145C125.551 30.4577 124.766 30.7793 123.838 30.7793ZM143.747 6.75098C143.376 6.75098 143.19 6.56543 143.19 6.19434V0.961914C143.19 0.59082 143.376 0.405273 143.747 0.405273H148.07C148.441 0.405273 148.627 0.59082 148.627 0.961914V6.19434C148.627 6.56543 148.441 6.75098 148.07 6.75098H143.747ZM150.445 30.2227C147.872 30.2227 146.017 29.5485 144.879 28.2002C143.753 26.8395 143.19 24.6253 143.19 21.5576V13.3936H138.793V9.21875H148.627V21.5576C148.627 23.1657 148.881 24.3161 149.388 25.0088C149.907 25.7015 150.767 26.0479 151.967 26.0479H156.309V30.2227H150.445ZM169.705 30.5381C167.738 30.5381 166.031 30.099 164.584 29.2207C163.149 28.3301 162.042 27.0684 161.263 25.4355C160.483 23.8027 160.094 21.873 160.094 19.6465C160.094 17.4199 160.483 15.4902 161.263 13.8574C162.054 12.2122 163.174 10.9443 164.621 10.0537C166.081 9.16309 167.806 8.71777 169.798 8.71777C171.765 8.71777 173.459 9.1569 174.882 10.0352C176.304 10.901 177.399 12.1442 178.166 13.7646C178.945 15.3851 179.335 17.3086 179.335 19.5352C179.335 21.7988 178.939 23.7533 178.147 25.3984C177.368 27.0436 176.261 28.3115 174.826 29.2021C173.391 30.0928 171.684 30.5381 169.705 30.5381ZM169.724 26.1221C170.998 26.1221 172.012 25.5407 172.767 24.3779C173.521 23.2028 173.898 21.6195 173.898 19.6279C173.898 17.624 173.521 16.0407 172.767 14.8779C172.012 13.7152 170.998 13.1338 169.724 13.1338C168.437 13.1338 167.417 13.7214 166.662 14.8965C165.908 16.0592 165.53 17.6364 165.53 19.6279C165.53 21.6195 165.908 23.2028 166.662 24.3779C167.417 25.5407 168.437 26.1221 169.724 26.1221Z" fill="#333333"/>
</svg>
